<svg height="7102" width="720" xmlns="http://www.w3.org/2000/svg">
<rect height="7102" fill="#555" width="720"></rect>
<text fill="#7f7" font-family="Courier New" font-size="12" xml:space="preserve">
<tspan x="10" y="26">88 megabytes installed</tspan>
<tspan x="10" y="42"></tspan>
<tspan x="10" y="58">node_modules</tspan>
<tspan x="10" y="74">└─┬ svg-to-png@3.1.2 </tspan>
<tspan x="10" y="90">  ├─┬ imagemin@3.1.0 </tspan>
<tspan x="10" y="106">  │ ├─┬ concat-stream@1.6.0 </tspan>
<tspan x="10" y="122">  │ │ ├── inherits@2.0.3 </tspan>
<tspan x="10" y="138">  │ │ ├─┬ readable-stream@2.2.9 </tspan>
<tspan x="10" y="154">  │ │ │ ├── buffer-shims@1.0.0 </tspan>
<tspan x="10" y="170">  │ │ │ ├── core-util-is@1.0.2 </tspan>
<tspan x="10" y="186">  │ │ │ ├── isarray@1.0.0 </tspan>
<tspan x="10" y="202">  │ │ │ ├── process-nextick-args@1.0.7 </tspan>
<tspan x="10" y="218">  │ │ │ ├── string_decoder@1.0.0 </tspan>
<tspan x="10" y="234">  │ │ │ └── util-deprecate@1.0.2 </tspan>
<tspan x="10" y="250">  │ │ └── typedarray@0.0.6 </tspan>
<tspan x="10" y="266">  │ ├── get-stdin@3.0.2 </tspan>
<tspan x="10" y="282">  │ ├─┬ imagemin-gifsicle@4.2.0 </tspan>
<tspan x="10" y="298">  │ │ ├─┬ gifsicle@3.0.4 </tspan>
<tspan x="10" y="314">  │ │ │ ├─┬ bin-build@2.2.0 </tspan>
<tspan x="10" y="330">  │ │ │ │ ├─┬ archive-type@3.2.0 </tspan>
<tspan x="10" y="346">  │ │ │ │ │ └── file-type@3.9.0 </tspan>
<tspan x="10" y="362">  │ │ │ │ ├─┬ decompress@3.0.0 </tspan>
<tspan x="10" y="378">  │ │ │ │ │ ├─┬ buffer-to-vinyl@1.1.0 </tspan>
<tspan x="10" y="394">  │ │ │ │ │ │ └── vinyl@1.2.0 </tspan>
<tspan x="10" y="410">  │ │ │ │ │ ├─┬ decompress-tar@3.1.0 </tspan>
<tspan x="10" y="426">  │ │ │ │ │ │ ├── is-tar@1.0.0 </tspan>
<tspan x="10" y="442">  │ │ │ │ │ │ ├─┬ strip-dirs@1.1.1 </tspan>
<tspan x="10" y="458">  │ │ │ │ │ │ │ ├── get-stdin@4.0.1 </tspan>
<tspan x="10" y="474">  │ │ │ │ │ │ │ ├─┬ is-absolute@0.1.7 </tspan>
<tspan x="10" y="490">  │ │ │ │ │ │ │ │ └── is-relative@0.1.3 </tspan>
<tspan x="10" y="506">  │ │ │ │ │ │ │ ├── is-natural-number@2.1.1 </tspan>
<tspan x="10" y="522">  │ │ │ │ │ │ │ └── sum-up@1.0.3 </tspan>
<tspan x="10" y="538">  │ │ │ │ │ │ └─┬ tar-stream@1.5.2 </tspan>
<tspan x="10" y="554">  │ │ │ │ │ │   ├── bl@1.2.0 </tspan>
<tspan x="10" y="570">  │ │ │ │ │ │   └── end-of-stream@1.4.0 </tspan>
<tspan x="10" y="586">  │ │ │ │ │ ├─┬ decompress-tarbz2@3.1.0 </tspan>
<tspan x="10" y="602">  │ │ │ │ │ │ ├── is-bzip2@1.0.0 </tspan>
<tspan x="10" y="618">  │ │ │ │ │ │ └─┬ seek-bzip@1.0.5 </tspan>
<tspan x="10" y="634">  │ │ │ │ │ │   └── commander@2.8.1 </tspan>
<tspan x="10" y="650">  │ │ │ │ │ ├─┬ decompress-targz@3.1.0 </tspan>
<tspan x="10" y="666">  │ │ │ │ │ │ └── is-gzip@1.0.0 </tspan>
<tspan x="10" y="682">  │ │ │ │ │ ├─┬ decompress-unzip@3.4.0 </tspan>
<tspan x="10" y="698">  │ │ │ │ │ │ ├── is-zip@1.0.0 </tspan>
<tspan x="10" y="714">  │ │ │ │ │ │ ├── stat-mode@0.2.2 </tspan>
<tspan x="10" y="730">  │ │ │ │ │ │ ├── through2@2.0.3 </tspan>
<tspan x="10" y="746">  │ │ │ │ │ │ ├── vinyl@1.2.0 </tspan>
<tspan x="10" y="762">  │ │ │ │ │ │ └─┬ yauzl@2.8.0 </tspan>
<tspan x="10" y="778">  │ │ │ │ │ │   └── buffer-crc32@0.2.13 </tspan>
<tspan x="10" y="794">  │ │ │ │ │ ├─┬ stream-combiner2@1.1.1 </tspan>
<tspan x="10" y="810">  │ │ │ │ │ │ └── duplexer2@0.1.4 </tspan>
<tspan x="10" y="826">  │ │ │ │ │ ├─┬ vinyl-assign@1.2.1 </tspan>
<tspan x="10" y="842">  │ │ │ │ │ │ └── object-assign@4.1.1 </tspan>
<tspan x="10" y="858">  │ │ │ │ │ └─┬ vinyl-fs@2.4.4 </tspan>
<tspan x="10" y="874">  │ │ │ │ │   ├─┬ duplexify@3.5.0 </tspan>
<tspan x="10" y="890">  │ │ │ │ │   │ ├─┬ end-of-stream@1.0.0 </tspan>
<tspan x="10" y="906">  │ │ │ │ │   │ │ └── once@1.3.3 </tspan>
<tspan x="10" y="922">  │ │ │ │ │   │ └── stream-shift@1.0.0 </tspan>
<tspan x="10" y="938">  │ │ │ │ │   ├─┬ glob-stream@5.3.5 </tspan>
<tspan x="10" y="954">  │ │ │ │ │   │ ├── glob@5.0.15 </tspan>
<tspan x="10" y="970">  │ │ │ │ │   │ ├─┬ glob-parent@3.1.0 </tspan>
<tspan x="10" y="986">  │ │ │ │ │   │ │ ├─┬ is-glob@3.1.0 </tspan>
<tspan x="10" y="1002">  │ │ │ │ │   │ │ │ └── is-extglob@2.1.1 </tspan>
<tspan x="10" y="1018">  │ │ │ │ │   │ │ └── path-dirname@1.0.2 </tspan>
<tspan x="10" y="1034">  │ │ │ │ │   │ ├─┬ micromatch@2.3.11 </tspan>
<tspan x="10" y="1050">  │ │ │ │ │   │ │ ├─┬ arr-diff@2.0.0 </tspan>
<tspan x="10" y="1066">  │ │ │ │ │   │ │ │ └── arr-flatten@1.0.3 </tspan>
<tspan x="10" y="1082">  │ │ │ │ │   │ │ ├── array-unique@0.2.1 </tspan>
<tspan x="10" y="1098">  │ │ │ │ │   │ │ ├─┬ braces@1.8.5 </tspan>
<tspan x="10" y="1114">  │ │ │ │ │   │ │ │ ├─┬ expand-range@1.8.2 </tspan>
<tspan x="10" y="1130">  │ │ │ │ │   │ │ │ │ └─┬ fill-range@2.2.3 </tspan>
<tspan x="10" y="1146">  │ │ │ │ │   │ │ │ │   ├── is-number@2.1.0 </tspan>
<tspan x="10" y="1162">  │ │ │ │ │   │ │ │ │   ├── isobject@2.1.0 </tspan>
<tspan x="10" y="1178">  │ │ │ │ │   │ │ │ │   ├── randomatic@1.1.6 </tspan>
<tspan x="10" y="1194">  │ │ │ │ │   │ │ │ │   └── repeat-string@1.6.1 </tspan>
<tspan x="10" y="1210">  │ │ │ │ │   │ │ │ ├── preserve@0.2.0 </tspan>
<tspan x="10" y="1226">  │ │ │ │ │   │ │ │ └── repeat-element@1.1.2 </tspan>
<tspan x="10" y="1242">  │ │ │ │ │   │ │ ├─┬ expand-brackets@0.1.5 </tspan>
<tspan x="10" y="1258">  │ │ │ │ │   │ │ │ └── is-posix-bracket@0.1.1 </tspan>
<tspan x="10" y="1274">  │ │ │ │ │   │ │ ├─┬ extglob@0.3.2 </tspan>
<tspan x="10" y="1290">  │ │ │ │ │   │ │ │ └── is-extglob@1.0.0 </tspan>
<tspan x="10" y="1306">  │ │ │ │ │   │ │ ├── filename-regex@2.0.0 </tspan>
<tspan x="10" y="1322">  │ │ │ │ │   │ │ ├── is-extglob@1.0.0 </tspan>
<tspan x="10" y="1338">  │ │ │ │ │   │ │ ├── is-glob@2.0.1 </tspan>
<tspan x="10" y="1354">  │ │ │ │ │   │ │ ├─┬ kind-of@3.2.0 </tspan>
<tspan x="10" y="1370">  │ │ │ │ │   │ │ │ └── is-buffer@1.1.5 </tspan>
<tspan x="10" y="1386">  │ │ │ │ │   │ │ ├─┬ normalize-path@2.1.1 </tspan>
<tspan x="10" y="1402">  │ │ │ │ │   │ │ │ └── remove-trailing-separator@1.0.1 </tspan>
<tspan x="10" y="1418">  │ │ │ │ │   │ │ ├─┬ object.omit@2.0.1 </tspan>
<tspan x="10" y="1434">  │ │ │ │ │   │ │ │ ├─┬ for-own@0.1.5 </tspan>
<tspan x="10" y="1450">  │ │ │ │ │   │ │ │ │ └── for-in@1.0.2 </tspan>
<tspan x="10" y="1466">  │ │ │ │ │   │ │ │ └── is-extendable@0.1.1 </tspan>
<tspan x="10" y="1482">  │ │ │ │ │   │ │ ├─┬ parse-glob@3.0.4 </tspan>
<tspan x="10" y="1498">  │ │ │ │ │   │ │ │ ├─┬ glob-base@0.3.0 </tspan>
<tspan x="10" y="1514">  │ │ │ │ │   │ │ │ │ ├── glob-parent@2.0.0 </tspan>
<tspan x="10" y="1530">  │ │ │ │ │   │ │ │ │ └─┬ is-glob@2.0.1 </tspan>
<tspan x="10" y="1546">  │ │ │ │ │   │ │ │ │   └── is-extglob@1.0.0 </tspan>
<tspan x="10" y="1562">  │ │ │ │ │   │ │ │ ├── is-dotfile@1.0.2 </tspan>
<tspan x="10" y="1578">  │ │ │ │ │   │ │ │ ├── is-extglob@1.0.0 </tspan>
<tspan x="10" y="1594">  │ │ │ │ │   │ │ │ └── is-glob@2.0.1 </tspan>
<tspan x="10" y="1610">  │ │ │ │ │   │ │ └─┬ regex-cache@0.4.3 </tspan>
<tspan x="10" y="1626">  │ │ │ │ │   │ │   ├── is-equal-shallow@0.1.3 </tspan>
<tspan x="10" y="1642">  │ │ │ │ │   │ │   └── is-primitive@2.0.0 </tspan>
<tspan x="10" y="1658">  │ │ │ │ │   │ ├── ordered-read-streams@0.3.0 </tspan>
<tspan x="10" y="1674">  │ │ │ │ │   │ ├─┬ to-absolute-glob@0.1.1 </tspan>
<tspan x="10" y="1690">  │ │ │ │ │   │ │ └── extend-shallow@2.0.1 </tspan>
<tspan x="10" y="1706">  │ │ │ │ │   │ └─┬ unique-stream@2.2.1 </tspan>
<tspan x="10" y="1722">  │ │ │ │ │   │   └─┬ json-stable-stringify@1.0.1 </tspan>
<tspan x="10" y="1738">  │ │ │ │ │   │     └── jsonify@0.0.0 </tspan>
<tspan x="10" y="1754">  │ │ │ │ │   ├─┬ gulp-sourcemaps@1.6.0 </tspan>
<tspan x="10" y="1770">  │ │ │ │ │   │ ├── convert-source-map@1.5.0 </tspan>
<tspan x="10" y="1786">  │ │ │ │ │   │ ├── through2@2.0.3 </tspan>
<tspan x="10" y="1802">  │ │ │ │ │   │ └── vinyl@1.2.0 </tspan>
<tspan x="10" y="1818">  │ │ │ │ │   ├── is-valid-glob@0.3.0 </tspan>
<tspan x="10" y="1834">  │ │ │ │ │   ├── lazystream@1.0.0 </tspan>
<tspan x="10" y="1850">  │ │ │ │ │   ├── lodash.isequal@4.5.0 </tspan>
<tspan x="10" y="1866">  │ │ │ │ │   ├── merge-stream@1.0.1 </tspan>
<tspan x="10" y="1882">  │ │ │ │ │   ├── object-assign@4.1.1 </tspan>
<tspan x="10" y="1898">  │ │ │ │ │   ├── strip-bom@2.0.0 </tspan>
<tspan x="10" y="1914">  │ │ │ │ │   ├── strip-bom-stream@1.0.0 </tspan>
<tspan x="10" y="1930">  │ │ │ │ │   ├── through2@2.0.3 </tspan>
<tspan x="10" y="1946">  │ │ │ │ │   ├─┬ through2-filter@2.0.0 </tspan>
<tspan x="10" y="1962">  │ │ │ │ │   │ └── through2@2.0.3 </tspan>
<tspan x="10" y="1978">  │ │ │ │ │   ├── vali-date@1.0.0 </tspan>
<tspan x="10" y="1994">  │ │ │ │ │   └── vinyl@1.2.0 </tspan>
<tspan x="10" y="2010">  │ │ │ │ ├─┬ download@4.4.3 </tspan>
<tspan x="10" y="2026">  │ │ │ │ │ ├─┬ caw@1.2.0 </tspan>
<tspan x="10" y="2042">  │ │ │ │ │ │ ├─┬ get-proxy@1.1.0 </tspan>
<tspan x="10" y="2058">  │ │ │ │ │ │ │ └─┬ rc@1.2.1 </tspan>
<tspan x="10" y="2074">  │ │ │ │ │ │ │   ├── deep-extend@0.4.1 </tspan>
<tspan x="10" y="2090">  │ │ │ │ │ │ │   ├── ini@1.3.4 </tspan>
<tspan x="10" y="2106">  │ │ │ │ │ │ │   └── strip-json-comments@2.0.1 </tspan>
<tspan x="10" y="2122">  │ │ │ │ │ │ ├── is-obj@1.0.1 </tspan>
<tspan x="10" y="2138">  │ │ │ │ │ │ └── object-assign@3.0.0 </tspan>
<tspan x="10" y="2154">  │ │ │ │ │ ├─┬ filenamify@1.2.1 </tspan>
<tspan x="10" y="2170">  │ │ │ │ │ │ ├── filename-reserved-regex@1.0.0 </tspan>
<tspan x="10" y="2186">  │ │ │ │ │ │ ├── strip-outer@1.0.0 </tspan>
<tspan x="10" y="2202">  │ │ │ │ │ │ └── trim-repeated@1.0.0 </tspan>
<tspan x="10" y="2218">  │ │ │ │ │ ├─┬ got@5.7.1 </tspan>
<tspan x="10" y="2234">  │ │ │ │ │ │ ├─┬ create-error-class@3.0.2 </tspan>
<tspan x="10" y="2250">  │ │ │ │ │ │ │ └── capture-stack-trace@1.0.0 </tspan>
<tspan x="10" y="2266">  │ │ │ │ │ │ ├── is-redirect@1.0.0 </tspan>
<tspan x="10" y="2282">  │ │ │ │ │ │ ├── is-retry-allowed@1.1.0 </tspan>
<tspan x="10" y="2298">  │ │ │ │ │ │ ├── lowercase-keys@1.0.0 </tspan>
<tspan x="10" y="2314">  │ │ │ │ │ │ ├── node-status-codes@1.0.0 </tspan>
<tspan x="10" y="2330">  │ │ │ │ │ │ ├── object-assign@4.1.1 </tspan>
<tspan x="10" y="2346">  │ │ │ │ │ │ ├─┬ parse-json@2.2.0 </tspan>
<tspan x="10" y="2362">  │ │ │ │ │ │ │ └─┬ error-ex@1.3.1 </tspan>
<tspan x="10" y="2378">  │ │ │ │ │ │ │   └── is-arrayish@0.2.1 </tspan>
<tspan x="10" y="2394">  │ │ │ │ │ │ ├── timed-out@3.1.3 </tspan>
<tspan x="10" y="2410">  │ │ │ │ │ │ ├── unzip-response@1.0.2 </tspan>
<tspan x="10" y="2426">  │ │ │ │ │ │ └─┬ url-parse-lax@1.0.0 </tspan>
<tspan x="10" y="2442">  │ │ │ │ │ │   └── prepend-http@1.0.4 </tspan>
<tspan x="10" y="2458">  │ │ │ │ │ ├─┬ gulp-decompress@1.2.0 </tspan>
<tspan x="10" y="2474">  │ │ │ │ │ │ └─┬ gulp-util@3.0.8 </tspan>
<tspan x="10" y="2490">  │ │ │ │ │ │   ├── array-differ@1.0.0 </tspan>
<tspan x="10" y="2506">  │ │ │ │ │ │   ├── array-uniq@1.0.3 </tspan>
<tspan x="10" y="2522">  │ │ │ │ │ │   ├── beeper@1.1.1 </tspan>
<tspan x="10" y="2538">  │ │ │ │ │ │   ├── dateformat@2.0.0 </tspan>
<tspan x="10" y="2554">  │ │ │ │ │ │   ├─┬ fancy-log@1.3.0 </tspan>
<tspan x="10" y="2570">  │ │ │ │ │ │   │ └── time-stamp@1.0.1 </tspan>
<tspan x="10" y="2586">  │ │ │ │ │ │   ├─┬ gulplog@1.0.0 </tspan>
<tspan x="10" y="2602">  │ │ │ │ │ │   │ └── glogg@1.0.0 </tspan>
<tspan x="10" y="2618">  │ │ │ │ │ │   ├─┬ has-gulplog@0.1.0 </tspan>
<tspan x="10" y="2634">  │ │ │ │ │ │   │ └── sparkles@1.0.0 </tspan>
<tspan x="10" y="2650">  │ │ │ │ │ │   ├── lodash._reescape@3.0.0 </tspan>
<tspan x="10" y="2666">  │ │ │ │ │ │   ├── lodash._reevaluate@3.0.0 </tspan>
<tspan x="10" y="2682">  │ │ │ │ │ │   ├── lodash._reinterpolate@3.0.0 </tspan>
<tspan x="10" y="2698">  │ │ │ │ │ │   ├─┬ lodash.template@3.6.2 </tspan>
<tspan x="10" y="2714">  │ │ │ │ │ │   │ ├── lodash._basecopy@3.0.1 </tspan>
<tspan x="10" y="2730">  │ │ │ │ │ │   │ ├── lodash._basetostring@3.0.1 </tspan>
<tspan x="10" y="2746">  │ │ │ │ │ │   │ ├── lodash._basevalues@3.0.0 </tspan>
<tspan x="10" y="2762">  │ │ │ │ │ │   │ ├── lodash._isiterateecall@3.0.9 </tspan>
<tspan x="10" y="2778">  │ │ │ │ │ │   │ ├─┬ lodash.escape@3.2.0 </tspan>
<tspan x="10" y="2794">  │ │ │ │ │ │   │ │ └── lodash._root@3.0.1 </tspan>
<tspan x="10" y="2810">  │ │ │ │ │ │   │ ├─┬ lodash.keys@3.1.2 </tspan>
<tspan x="10" y="2826">  │ │ │ │ │ │   │ │ ├── lodash._getnative@3.9.1 </tspan>
<tspan x="10" y="2842">  │ │ │ │ │ │   │ │ ├── lodash.isarguments@3.1.0 </tspan>
<tspan x="10" y="2858">  │ │ │ │ │ │   │ │ └── lodash.isarray@3.0.4 </tspan>
<tspan x="10" y="2874">  │ │ │ │ │ │   │ ├── lodash.restparam@3.6.1 </tspan>
<tspan x="10" y="2890">  │ │ │ │ │ │   │ └── lodash.templatesettings@3.1.1 </tspan>
<tspan x="10" y="2906">  │ │ │ │ │ │   ├─┬ multipipe@0.1.2 </tspan>
<tspan x="10" y="2922">  │ │ │ │ │ │   │ └─┬ duplexer2@0.0.2 </tspan>
<tspan x="10" y="2938">  │ │ │ │ │ │   │   └─┬ readable-stream@1.1.14 </tspan>
<tspan x="10" y="2954">  │ │ │ │ │ │   │     ├── isarray@0.0.1 </tspan>
<tspan x="10" y="2970">  │ │ │ │ │ │   │     └── string_decoder@0.10.31 </tspan>
<tspan x="10" y="2986">  │ │ │ │ │ │   ├── object-assign@3.0.0 </tspan>
<tspan x="10" y="3002">  │ │ │ │ │ │   ├── through2@2.0.3 </tspan>
<tspan x="10" y="3018">  │ │ │ │ │ │   └── vinyl@0.5.3 </tspan>
<tspan x="10" y="3034">  │ │ │ │ │ ├── gulp-rename@1.2.2 </tspan>
<tspan x="10" y="3050">  │ │ │ │ │ ├── is-url@1.2.2 </tspan>
<tspan x="10" y="3066">  │ │ │ │ │ ├── object-assign@4.1.1 </tspan>
<tspan x="10" y="3082">  │ │ │ │ │ ├── read-all-stream@3.1.0 </tspan>
<tspan x="10" y="3098">  │ │ │ │ │ ├─┬ vinyl@1.2.0 </tspan>
<tspan x="10" y="3114">  │ │ │ │ │ │ └── replace-ext@0.0.1 </tspan>
<tspan x="10" y="3130">  │ │ │ │ │ ├─┬ vinyl-fs@2.4.4 </tspan>
<tspan x="10" y="3146">  │ │ │ │ │ │ └── through2@2.0.3 </tspan>
<tspan x="10" y="3162">  │ │ │ │ │ └─┬ ware@1.3.0 </tspan>
<tspan x="10" y="3178">  │ │ │ │ │   └─┬ wrap-fn@0.1.5 </tspan>
<tspan x="10" y="3194">  │ │ │ │ │     └── co@3.1.0 </tspan>
<tspan x="10" y="3210">  │ │ │ │ ├─┬ exec-series@1.0.3 </tspan>
<tspan x="10" y="3226">  │ │ │ │ │ ├── async-each-series@1.1.0 </tspan>
<tspan x="10" y="3242">  │ │ │ │ │ └── object-assign@4.1.1 </tspan>
<tspan x="10" y="3258">  │ │ │ │ └─┬ url-regex@3.2.0 </tspan>
<tspan x="10" y="3274">  │ │ │ │   └── ip-regex@1.0.3 </tspan>
<tspan x="10" y="3290">  │ │ │ ├─┬ bin-wrapper@3.0.2 </tspan>
<tspan x="10" y="3306">  │ │ │ │ ├─┬ bin-check@2.0.0 </tspan>
<tspan x="10" y="3322">  │ │ │ │ │ └─┬ executable@1.1.0 </tspan>
<tspan x="10" y="3338">  │ │ │ │ │   └─┬ meow@3.7.0 </tspan>
<tspan x="10" y="3354">  │ │ │ │ │     ├─┬ camelcase-keys@2.1.0 </tspan>
<tspan x="10" y="3370">  │ │ │ │ │     │ └── camelcase@2.1.1 </tspan>
<tspan x="10" y="3386">  │ │ │ │ │     ├── decamelize@1.2.0 </tspan>
<tspan x="10" y="3402">  │ │ │ │ │     ├─┬ loud-rejection@1.6.0 </tspan>
<tspan x="10" y="3418">  │ │ │ │ │     │ ├─┬ currently-unhandled@0.4.1 </tspan>
<tspan x="10" y="3434">  │ │ │ │ │     │ │ └── array-find-index@1.0.2 </tspan>
<tspan x="10" y="3450">  │ │ │ │ │     │ └── signal-exit@3.0.2 </tspan>
<tspan x="10" y="3466">  │ │ │ │ │     ├─┬ normalize-package-data@2.3.8 </tspan>
<tspan x="10" y="3482">  │ │ │ │ │     │ ├── hosted-git-info@2.4.2 </tspan>
<tspan x="10" y="3498">  │ │ │ │ │     │ ├─┬ is-builtin-module@1.0.0 </tspan>
<tspan x="10" y="3514">  │ │ │ │ │     │ │ └── builtin-modules@1.1.1 </tspan>
<tspan x="10" y="3530">  │ │ │ │ │     │ └─┬ validate-npm-package-license@3.0.1 </tspan>
<tspan x="10" y="3546">  │ │ │ │ │     │   ├─┬ spdx-correct@1.0.2 </tspan>
<tspan x="10" y="3562">  │ │ │ │ │     │   │ └── spdx-license-ids@1.2.2 </tspan>
<tspan x="10" y="3578">  │ │ │ │ │     │   └── spdx-expression-parse@1.0.4 </tspan>
<tspan x="10" y="3594">  │ │ │ │ │     ├── object-assign@4.1.1 </tspan>
<tspan x="10" y="3610">  │ │ │ │ │     ├─┬ read-pkg-up@1.0.1 </tspan>
<tspan x="10" y="3626">  │ │ │ │ │     │ ├─┬ find-up@1.1.2 </tspan>
<tspan x="10" y="3642">  │ │ │ │ │     │ │ └── path-exists@2.1.0 </tspan>
<tspan x="10" y="3658">  │ │ │ │ │     │ └─┬ read-pkg@1.1.0 </tspan>
<tspan x="10" y="3674">  │ │ │ │ │     │   ├─┬ load-json-file@1.1.0 </tspan>
<tspan x="10" y="3690">  │ │ │ │ │     │   │ └── pify@2.3.0 </tspan>
<tspan x="10" y="3706">  │ │ │ │ │     │   └── path-type@1.1.0 </tspan>
<tspan x="10" y="3722">  │ │ │ │ │     ├─┬ redent@1.0.0 </tspan>
<tspan x="10" y="3738">  │ │ │ │ │     │ ├─┬ indent-string@2.1.0 </tspan>
<tspan x="10" y="3754">  │ │ │ │ │     │ │ └── repeating@2.0.1 </tspan>
<tspan x="10" y="3770">  │ │ │ │ │     │ └─┬ strip-indent@1.0.1 </tspan>
<tspan x="10" y="3786">  │ │ │ │ │     │   └── get-stdin@4.0.1 </tspan>
<tspan x="10" y="3802">  │ │ │ │ │     └── trim-newlines@1.0.0 </tspan>
<tspan x="10" y="3818">  │ │ │ │ ├─┬ bin-version-check@2.1.0 </tspan>
<tspan x="10" y="3834">  │ │ │ │ │ ├─┬ bin-version@1.0.4 </tspan>
<tspan x="10" y="3850">  │ │ │ │ │ │ └─┬ find-versions@1.2.1 </tspan>
<tspan x="10" y="3866">  │ │ │ │ │ │   ├── get-stdin@4.0.1 </tspan>
<tspan x="10" y="3882">  │ │ │ │ │ │   ├─┬ meow@3.7.0 </tspan>
<tspan x="10" y="3898">  │ │ │ │ │ │   │ └── object-assign@4.1.1 </tspan>
<tspan x="10" y="3914">  │ │ │ │ │ │   └── semver-regex@1.0.0 </tspan>
<tspan x="10" y="3930">  │ │ │ │ │ ├── semver@4.3.6 </tspan>
<tspan x="10" y="3946">  │ │ │ │ │ └─┬ semver-truncate@1.1.2 </tspan>
<tspan x="10" y="3962">  │ │ │ │ │   └── semver@5.3.0 </tspan>
<tspan x="10" y="3978">  │ │ │ │ ├─┬ each-async@1.1.1 </tspan>
<tspan x="10" y="3994">  │ │ │ │ │ ├── onetime@1.1.0 </tspan>
<tspan x="10" y="4010">  │ │ │ │ │ └── set-immediate-shim@1.0.1 </tspan>
<tspan x="10" y="4026">  │ │ │ │ ├── lazy-req@1.1.0 </tspan>
<tspan x="10" y="4042">  │ │ │ │ └── os-filter-obj@1.0.3 </tspan>
<tspan x="10" y="4058">  │ │ │ └─┬ logalot@2.1.0 </tspan>
<tspan x="10" y="4074">  │ │ │   ├─┬ figures@1.7.0 </tspan>
<tspan x="10" y="4090">  │ │ │   │ └── object-assign@4.1.1 </tspan>
<tspan x="10" y="4106">  │ │ │   └─┬ squeak@1.3.0 </tspan>
<tspan x="10" y="4122">  │ │ │     ├── console-stream@0.1.1 </tspan>
<tspan x="10" y="4138">  │ │ │     └─┬ lpad-align@1.1.0 </tspan>
<tspan x="10" y="4154">  │ │ │       ├── get-stdin@4.0.1 </tspan>
<tspan x="10" y="4170">  │ │ │       ├── longest@1.0.1 </tspan>
<tspan x="10" y="4186">  │ │ │       ├── lpad@2.0.1 </tspan>
<tspan x="10" y="4202">  │ │ │       └─┬ meow@3.7.0 </tspan>
<tspan x="10" y="4218">  │ │ │         └── object-assign@4.1.1 </tspan>
<tspan x="10" y="4234">  │ │ └── is-gif@1.0.0 </tspan>
<tspan x="10" y="4250">  │ ├─┬ imagemin-jpegtran@4.3.2 </tspan>
<tspan x="10" y="4266">  │ │ ├── is-jpg@1.0.0 </tspan>
<tspan x="10" y="4282">  │ │ ├── jpegtran-bin@3.2.0 </tspan>
<tspan x="10" y="4298">  │ │ └── through2@2.0.3 </tspan>
<tspan x="10" y="4314">  │ ├─┬ imagemin-optipng@4.3.0 </tspan>
<tspan x="10" y="4330">  │ │ ├─┬ exec-buffer@2.0.1 </tspan>
<tspan x="10" y="4346">  │ │ │ ├─┬ rimraf@2.6.1 </tspan>
<tspan x="10" y="4362">  │ │ │ │ └─┬ glob@7.1.1 </tspan>
<tspan x="10" y="4378">  │ │ │ │   ├── fs.realpath@1.0.0 </tspan>
<tspan x="10" y="4394">  │ │ │ │   ├── minimatch@3.0.3 </tspan>
<tspan x="10" y="4410">  │ │ │ │   └── path-is-absolute@1.0.1 </tspan>
<tspan x="10" y="4426">  │ │ │ └─┬ tempfile@1.1.1 </tspan>
<tspan x="10" y="4442">  │ │ │   ├── os-tmpdir@1.0.2 </tspan>
<tspan x="10" y="4458">  │ │ │   └── uuid@2.0.3 </tspan>
<tspan x="10" y="4474">  │ │ ├── is-png@1.1.0 </tspan>
<tspan x="10" y="4490">  │ │ └── optipng-bin@3.1.4 </tspan>
<tspan x="10" y="4506">  │ ├─┬ imagemin-pngquant@4.2.2 </tspan>
<tspan x="10" y="4522">  │ │ ├── pngquant-bin@3.1.1 </tspan>
<tspan x="10" y="4538">  │ │ └── through2@2.0.3 </tspan>
<tspan x="10" y="4554">  │ ├─┬ imagemin-svgo@4.2.1 </tspan>
<tspan x="10" y="4570">  │ │ ├── is-svg@1.1.1 </tspan>
<tspan x="10" y="4586">  │ │ ├─┬ svgo@0.6.6 </tspan>
<tspan x="10" y="4602">  │ │ │ ├─┬ coa@1.0.1 </tspan>
<tspan x="10" y="4618">  │ │ │ │ └── q@1.5.0 </tspan>
<tspan x="10" y="4634">  │ │ │ ├── colors@1.1.2 </tspan>
<tspan x="10" y="4650">  │ │ │ ├─┬ csso@2.0.0 </tspan>
<tspan x="10" y="4666">  │ │ │ │ ├── clap@1.1.3 </tspan>
<tspan x="10" y="4682">  │ │ │ │ └── source-map@0.5.6 </tspan>
<tspan x="10" y="4698">  │ │ │ ├─┬ js-yaml@3.6.1 </tspan>
<tspan x="10" y="4714">  │ │ │ │ ├─┬ argparse@1.0.9 </tspan>
<tspan x="10" y="4730">  │ │ │ │ │ └── sprintf-js@1.0.3 </tspan>
<tspan x="10" y="4746">  │ │ │ │ └── esprima@2.7.3 </tspan>
<tspan x="10" y="4762">  │ │ │ ├── sax@1.2.2 </tspan>
<tspan x="10" y="4778">  │ │ │ └── whet.extend@0.9.9 </tspan>
<tspan x="10" y="4794">  │ │ └── through2@2.0.3 </tspan>
<tspan x="10" y="4810">  │ ├─┬ meow@2.1.0 </tspan>
<tspan x="10" y="4826">  │ │ ├─┬ camelcase-keys@1.0.0 </tspan>
<tspan x="10" y="4842">  │ │ │ ├── camelcase@1.2.1 </tspan>
<tspan x="10" y="4858">  │ │ │ └── map-obj@1.0.1 </tspan>
<tspan x="10" y="4874">  │ │ ├─┬ indent-string@1.2.2 </tspan>
<tspan x="10" y="4890">  │ │ │ ├── get-stdin@4.0.1 </tspan>
<tspan x="10" y="4906">  │ │ │ └─┬ repeating@1.1.3 </tspan>
<tspan x="10" y="4922">  │ │ │   └─┬ is-finite@1.0.2 </tspan>
<tspan x="10" y="4938">  │ │ │     └── number-is-nan@1.0.1 </tspan>
<tspan x="10" y="4954">  │ │ ├── minimist@1.2.0 </tspan>
<tspan x="10" y="4970">  │ │ └── object-assign@2.1.1 </tspan>
<tspan x="10" y="4986">  │ ├── optional@0.1.3 </tspan>
<tspan x="10" y="5002">  │ ├─┬ stream-combiner@0.2.2 </tspan>
<tspan x="10" y="5018">  │ │ ├── duplexer@0.1.1 </tspan>
<tspan x="10" y="5034">  │ │ └── through@2.3.8 </tspan>
<tspan x="10" y="5050">  │ ├─┬ through2@0.6.5 </tspan>
<tspan x="10" y="5066">  │ │ ├─┬ readable-stream@1.0.34 </tspan>
<tspan x="10" y="5082">  │ │ │ ├── isarray@0.0.1 </tspan>
<tspan x="10" y="5098">  │ │ │ └── string_decoder@0.10.31 </tspan>
<tspan x="10" y="5114">  │ │ └── xtend@4.0.1 </tspan>
<tspan x="10" y="5130">  │ ├─┬ vinyl@0.4.6 </tspan>
<tspan x="10" y="5146">  │ │ ├── clone@0.2.0 </tspan>
<tspan x="10" y="5162">  │ │ └── clone-stats@0.0.1 </tspan>
<tspan x="10" y="5178">  │ └─┬ vinyl-fs@0.3.14 </tspan>
<tspan x="10" y="5194">  │   ├─┬ defaults@1.0.3 </tspan>
<tspan x="10" y="5210">  │   │ └── clone@1.0.2 </tspan>
<tspan x="10" y="5226">  │   ├─┬ glob-stream@3.1.18 </tspan>
<tspan x="10" y="5242">  │   │ ├─┬ glob@4.5.3 </tspan>
<tspan x="10" y="5258">  │   │ │ ├─┬ inflight@1.0.6 </tspan>
<tspan x="10" y="5274">  │   │ │ │ └── wrappy@1.0.2 </tspan>
<tspan x="10" y="5290">  │   │ │ └── once@1.4.0 </tspan>
<tspan x="10" y="5306">  │   │ ├─┬ glob2base@0.0.12 </tspan>
<tspan x="10" y="5322">  │   │ │ └── find-index@0.1.1 </tspan>
<tspan x="10" y="5338">  │   │ ├─┬ minimatch@2.0.10 </tspan>
<tspan x="10" y="5354">  │   │ │ └─┬ brace-expansion@1.1.7 </tspan>
<tspan x="10" y="5370">  │   │ │   ├── balanced-match@0.4.2 </tspan>
<tspan x="10" y="5386">  │   │ │   └── concat-map@0.0.1 </tspan>
<tspan x="10" y="5402">  │   │ ├── ordered-read-streams@0.1.0 </tspan>
<tspan x="10" y="5418">  │   │ └── unique-stream@1.0.0 </tspan>
<tspan x="10" y="5434">  │   ├─┬ glob-watcher@0.0.6 </tspan>
<tspan x="10" y="5450">  │   │ └─┬ gaze@0.5.2 </tspan>
<tspan x="10" y="5466">  │   │   └─┬ globule@0.1.0 </tspan>
<tspan x="10" y="5482">  │   │     ├─┬ glob@3.1.21 </tspan>
<tspan x="10" y="5498">  │   │     │ ├── graceful-fs@1.2.3 </tspan>
<tspan x="10" y="5514">  │   │     │ └── inherits@1.0.2 </tspan>
<tspan x="10" y="5530">  │   │     ├── lodash@1.0.2 </tspan>
<tspan x="10" y="5546">  │   │     └─┬ minimatch@0.2.14 </tspan>
<tspan x="10" y="5562">  │   │       ├── lru-cache@2.7.3 </tspan>
<tspan x="10" y="5578">  │   │       └── sigmund@1.0.1 </tspan>
<tspan x="10" y="5594">  │   ├─┬ graceful-fs@3.0.11 </tspan>
<tspan x="10" y="5610">  │   │ └── natives@1.1.0 </tspan>
<tspan x="10" y="5626">  │   ├─┬ mkdirp@0.5.1 </tspan>
<tspan x="10" y="5642">  │   │ └── minimist@0.0.8 </tspan>
<tspan x="10" y="5658">  │   └─┬ strip-bom@1.0.0 </tspan>
<tspan x="10" y="5674">  │     ├── first-chunk-stream@1.0.0 </tspan>
<tspan x="10" y="5690">  │     └── is-utf8@0.2.1 </tspan>
<tspan x="10" y="5706">  └─┬ phantomjs-prebuilt@2.1.14 </tspan>
<tspan x="10" y="5722">    ├── es6-promise@4.0.5 </tspan>
<tspan x="10" y="5738">    ├─┬ extract-zip@1.5.0 </tspan>
<tspan x="10" y="5754">    │ ├─┬ concat-stream@1.5.0 </tspan>
<tspan x="10" y="5770">    │ │ └─┬ readable-stream@2.0.6 </tspan>
<tspan x="10" y="5786">    │ │   └── string_decoder@0.10.31 </tspan>
<tspan x="10" y="5802">    │ ├── debug@0.7.4 </tspan>
<tspan x="10" y="5818">    │ ├─┬ mkdirp@0.5.0 </tspan>
<tspan x="10" y="5834">    │ │ └── minimist@0.0.8 </tspan>
<tspan x="10" y="5850">    │ └─┬ yauzl@2.4.1 </tspan>
<tspan x="10" y="5866">    │   └─┬ fd-slicer@1.0.1 </tspan>
<tspan x="10" y="5882">    │     └── pend@1.2.0 </tspan>
<tspan x="10" y="5898">    ├─┬ fs-extra@1.0.0 </tspan>
<tspan x="10" y="5914">    │ ├── graceful-fs@4.1.11 </tspan>
<tspan x="10" y="5930">    │ ├── jsonfile@2.4.0 </tspan>
<tspan x="10" y="5946">    │ └── klaw@1.3.1 </tspan>
<tspan x="10" y="5962">    ├─┬ hasha@2.2.0 </tspan>
<tspan x="10" y="5978">    │ ├── is-stream@1.1.0 </tspan>
<tspan x="10" y="5994">    │ └─┬ pinkie-promise@2.0.1 </tspan>
<tspan x="10" y="6010">    │   └── pinkie@2.0.4 </tspan>
<tspan x="10" y="6026">    ├── kew@0.7.0 </tspan>
<tspan x="10" y="6042">    ├── progress@1.1.8 </tspan>
<tspan x="10" y="6058">    ├─┬ request@2.79.0 </tspan>
<tspan x="10" y="6074">    │ ├── aws-sign2@0.6.0 </tspan>
<tspan x="10" y="6090">    │ ├── aws4@1.6.0 </tspan>
<tspan x="10" y="6106">    │ ├── caseless@0.11.0 </tspan>
<tspan x="10" y="6122">    │ ├─┬ combined-stream@1.0.5 </tspan>
<tspan x="10" y="6138">    │ │ └── delayed-stream@1.0.0 </tspan>
<tspan x="10" y="6154">    │ ├── extend@3.0.0 </tspan>
<tspan x="10" y="6170">    │ ├── forever-agent@0.6.1 </tspan>
<tspan x="10" y="6186">    │ ├─┬ form-data@2.1.4 </tspan>
<tspan x="10" y="6202">    │ │ └── asynckit@0.4.0 </tspan>
<tspan x="10" y="6218">    │ ├─┬ har-validator@2.0.6 </tspan>
<tspan x="10" y="6234">    │ │ ├─┬ chalk@1.1.3 </tspan>
<tspan x="10" y="6250">    │ │ │ ├── ansi-styles@2.2.1 </tspan>
<tspan x="10" y="6266">    │ │ │ ├── escape-string-regexp@1.0.5 </tspan>
<tspan x="10" y="6282">    │ │ │ ├─┬ has-ansi@2.0.0 </tspan>
<tspan x="10" y="6298">    │ │ │ │ └── ansi-regex@2.1.1 </tspan>
<tspan x="10" y="6314">    │ │ │ ├── strip-ansi@3.0.1 </tspan>
<tspan x="10" y="6330">    │ │ │ └── supports-color@2.0.0 </tspan>
<tspan x="10" y="6346">    │ │ ├─┬ commander@2.9.0 </tspan>
<tspan x="10" y="6362">    │ │ │ └── graceful-readlink@1.0.1 </tspan>
<tspan x="10" y="6378">    │ │ └─┬ is-my-json-valid@2.16.0 </tspan>
<tspan x="10" y="6394">    │ │   ├── generate-function@2.0.0 </tspan>
<tspan x="10" y="6410">    │ │   ├─┬ generate-object-property@1.2.0 </tspan>
<tspan x="10" y="6426">    │ │   │ └── is-property@1.0.2 </tspan>
<tspan x="10" y="6442">    │ │   └── jsonpointer@4.0.1 </tspan>
<tspan x="10" y="6458">    │ ├─┬ hawk@3.1.3 </tspan>
<tspan x="10" y="6474">    │ │ ├── boom@2.10.1 </tspan>
<tspan x="10" y="6490">    │ │ ├── cryptiles@2.0.5 </tspan>
<tspan x="10" y="6506">    │ │ ├── hoek@2.16.3 </tspan>
<tspan x="10" y="6522">    │ │ └── sntp@1.0.9 </tspan>
<tspan x="10" y="6538">    │ ├─┬ http-signature@1.1.1 </tspan>
<tspan x="10" y="6554">    │ │ ├── assert-plus@0.2.0 </tspan>
<tspan x="10" y="6570">    │ │ ├─┬ jsprim@1.4.0 </tspan>
<tspan x="10" y="6586">    │ │ │ ├── assert-plus@1.0.0 </tspan>
<tspan x="10" y="6602">    │ │ │ ├── extsprintf@1.0.2 </tspan>
<tspan x="10" y="6618">    │ │ │ ├── json-schema@0.2.3 </tspan>
<tspan x="10" y="6634">    │ │ │ └── verror@1.3.6 </tspan>
<tspan x="10" y="6650">    │ │ └─┬ sshpk@1.13.0 </tspan>
<tspan x="10" y="6666">    │ │   ├── asn1@0.2.3 </tspan>
<tspan x="10" y="6682">    │ │   ├── assert-plus@1.0.0 </tspan>
<tspan x="10" y="6698">    │ │   ├── bcrypt-pbkdf@1.0.1 </tspan>
<tspan x="10" y="6714">    │ │   ├─┬ dashdash@1.14.1 </tspan>
<tspan x="10" y="6730">    │ │   │ └── assert-plus@1.0.0 </tspan>
<tspan x="10" y="6746">    │ │   ├── ecc-jsbn@0.1.1 </tspan>
<tspan x="10" y="6762">    │ │   ├─┬ getpass@0.1.6 </tspan>
<tspan x="10" y="6778">    │ │   │ └── assert-plus@1.0.0 </tspan>
<tspan x="10" y="6794">    │ │   ├── jodid25519@1.0.2 </tspan>
<tspan x="10" y="6810">    │ │   ├── jsbn@0.1.1 </tspan>
<tspan x="10" y="6826">    │ │   └── tweetnacl@0.14.5 </tspan>
<tspan x="10" y="6842">    │ ├── is-typedarray@1.0.0 </tspan>
<tspan x="10" y="6858">    │ ├── isstream@0.1.2 </tspan>
<tspan x="10" y="6874">    │ ├── json-stringify-safe@5.0.1 </tspan>
<tspan x="10" y="6890">    │ ├─┬ mime-types@2.1.15 </tspan>
<tspan x="10" y="6906">    │ │ └── mime-db@1.27.0 </tspan>
<tspan x="10" y="6922">    │ ├── oauth-sign@0.8.2 </tspan>
<tspan x="10" y="6938">    │ ├── qs@6.3.2 </tspan>
<tspan x="10" y="6954">    │ ├── stringstream@0.0.5 </tspan>
<tspan x="10" y="6970">    │ ├─┬ tough-cookie@2.3.2 </tspan>
<tspan x="10" y="6986">    │ │ └── punycode@1.4.1 </tspan>
<tspan x="10" y="7002">    │ ├── tunnel-agent@0.4.3 </tspan>
<tspan x="10" y="7018">    │ └── uuid@3.0.1 </tspan>
<tspan x="10" y="7034">    ├─┬ request-progress@2.0.1 </tspan>
<tspan x="10" y="7050">    │ └── throttleit@1.0.0 </tspan>
<tspan x="10" y="7066">    └─┬ which@1.2.14 </tspan>
<tspan x="10" y="7082">      └── isexe@2.0.0</tspan>
</text>
</svg>
